<svg xmlns="http://www.w3.org/2000/svg" width="277.201" height="21.167" viewBox="0 0 277.201 21.167">
  <g id="Group_17065" data-name="Group 17065" transform="translate(16186.688 862.167)">
    <path id="Path_16" data-name="Path 16" d="M167.992-7.733h-4.857V5.476h-3.267V-7.733h-4.791v-2.646h12.915ZM175.07,5.694a5.784,5.784,0,0,1-4.22-1.59,5.651,5.651,0,0,1-1.628-4.236v-.3a7.118,7.118,0,0,1,.686-3.174,5.035,5.035,0,0,1,1.944-2.156,5.456,5.456,0,0,1,2.869-.757A4.89,4.89,0,0,1,178.527-5a6.2,6.2,0,0,1,1.388,4.323V.608h-7.5a2.924,2.924,0,0,0,.92,1.851,2.782,2.782,0,0,0,1.944.7,3.4,3.4,0,0,0,2.842-1.318l1.546,1.731a4.724,4.724,0,0,1-1.917,1.563A6.288,6.288,0,0,1,175.07,5.694Zm-.359-9.681a1.966,1.966,0,0,0-1.519.634,3.285,3.285,0,0,0-.746,1.816h4.377v-.252a2.343,2.343,0,0,0-.566-1.624A2.029,2.029,0,0,0,174.71-3.987ZM186.6,3.156a2.064,2.064,0,0,0,1.416-.479,1.679,1.679,0,0,0,.566-1.274h2.951a4.037,4.037,0,0,1-.653,2.194,4.311,4.311,0,0,1-1.759,1.546,5.5,5.5,0,0,1-2.466.55,5.115,5.115,0,0,1-3.985-1.606A6.356,6.356,0,0,1,181.211-.35V-.557A6.283,6.283,0,0,1,182.66-4.9a5.055,5.055,0,0,1,3.975-1.622,4.956,4.956,0,0,1,3.544,1.258,4.453,4.453,0,0,1,1.356,3.348h-2.951a2.163,2.163,0,0,0-.566-1.494,1.888,1.888,0,0,0-1.437-.575,1.9,1.9,0,0,0-1.661.8,4.645,4.645,0,0,0-.561,2.6v.327a4.7,4.7,0,0,0,.555,2.617A1.919,1.919,0,0,0,186.6,3.156Zm9.8-8.178a3.928,3.928,0,0,1,3.147-1.5q3.833,0,3.887,4.454V5.476h-3.147V-1.983a2.189,2.189,0,0,0-.436-1.5,1.867,1.867,0,0,0-1.448-.485,2.142,2.142,0,0,0-2,1.067V5.476h-3.147V-11.25H196.4Z" transform="translate(-16112.923 -850.917)" fill="#c4171b"/>
    <path id="Path_15" data-name="Path 15" d="M3.107-.531V5.262H1.155v-14.8H6.613A5.483,5.483,0,0,1,10.419-8.3,4.2,4.2,0,0,1,11.8-5.013,4.148,4.148,0,0,1,10.45-1.695,5.728,5.728,0,0,1,6.593-.531Zm0-1.6H6.613a3.506,3.506,0,0,0,2.4-.738A2.7,2.7,0,0,0,9.845-5a2.788,2.788,0,0,0-.833-2.118A3.284,3.284,0,0,0,6.725-7.94H3.107ZM13.361-.338A6.5,6.5,0,0,1,14-3.245a4.739,4.739,0,0,1,1.768-1.992,4.814,4.814,0,0,1,2.587-.7,4.637,4.637,0,0,1,3.633,1.555A5.982,5.982,0,0,1,23.372-.247v.132a6.552,6.552,0,0,1-.615,2.881A4.669,4.669,0,0,1,21,4.754a4.869,4.869,0,0,1-2.627.711A4.626,4.626,0,0,1,14.749,3.91,5.952,5.952,0,0,1,13.361-.206Zm1.89.224A4.7,4.7,0,0,0,16.1,2.823a2.716,2.716,0,0,0,2.271,1.108,2.7,2.7,0,0,0,2.277-1.123,5.144,5.144,0,0,0,.844-3.146,4.7,4.7,0,0,0-.859-2.932,2.73,2.73,0,0,0-2.282-1.123,2.7,2.7,0,0,0-2.246,1.108A5.106,5.106,0,0,0,15.252-.114ZM35.466,2.67,37.58-5.735h1.88l-3.2,11H34.735L32.062-3.072l-2.6,8.334H27.935l-3.191-11h1.87L28.779,2.5,31.34-5.735h1.514ZM45.935,5.465A4.8,4.8,0,0,1,42.3,4a5.451,5.451,0,0,1-1.4-3.928V-.277A6.6,6.6,0,0,1,41.519-3.2a4.876,4.876,0,0,1,1.748-2.012A4.4,4.4,0,0,1,45.7-5.938a4.118,4.118,0,0,1,3.334,1.413A6.116,6.116,0,0,1,50.224-.48V.3h-7.45a3.909,3.909,0,0,0,.95,2.627,2.987,2.987,0,0,0,2.312,1,3.275,3.275,0,0,0,1.687-.407,4.239,4.239,0,0,0,1.209-1.077l1.148.894A4.618,4.618,0,0,1,45.935,5.465ZM45.7-4.393a2.508,2.508,0,0,0-1.911.828,4.026,4.026,0,0,0-.955,2.322h5.508v-.142a3.581,3.581,0,0,0-.772-2.221A2.361,2.361,0,0,0,45.7-4.393Zm12.013.346a5.635,5.635,0,0,0-.925-.071,2.478,2.478,0,0,0-2.51,1.575V5.262H52.4v-11h1.829l.03,1.27A2.928,2.928,0,0,1,56.88-5.938a1.921,1.921,0,0,1,.833.142ZM64,5.465A4.8,4.8,0,0,1,60.366,4a5.451,5.451,0,0,1-1.4-3.928V-.277A6.6,6.6,0,0,1,59.589-3.2a4.876,4.876,0,0,1,1.748-2.012,4.4,4.4,0,0,1,2.434-.727A4.118,4.118,0,0,1,67.1-4.525,6.116,6.116,0,0,1,68.294-.48V.3h-7.45a3.909,3.909,0,0,0,.95,2.627,2.987,2.987,0,0,0,2.312,1,3.275,3.275,0,0,0,1.687-.407A4.239,4.239,0,0,0,67,2.447l1.148.894A4.618,4.618,0,0,1,64,5.465Zm-.234-9.858a2.508,2.508,0,0,0-1.911.828,4.026,4.026,0,0,0-.955,2.322h5.508v-.142a3.581,3.581,0,0,0-.772-2.221A2.361,2.361,0,0,0,63.771-4.393Zm6.24,4.065a6.442,6.442,0,0,1,1.2-4.07,3.792,3.792,0,0,1,3.14-1.54A3.814,3.814,0,0,1,77.41-4.617v-5.732h1.88V5.262H77.563l-.091-1.179a3.829,3.829,0,0,1-3.14,1.382A3.756,3.756,0,0,1,71.216,3.9a6.515,6.515,0,0,1-1.2-4.086Zm1.88.213a4.878,4.878,0,0,0,.772,2.927A2.5,2.5,0,0,0,74.8,3.87,2.743,2.743,0,0,0,77.41,2.264V-2.787a2.764,2.764,0,0,0-2.592-1.555,2.509,2.509,0,0,0-2.155,1.067A5.37,5.37,0,0,0,71.892-.114ZM87.655,5.262v-14.8h4.838a5.616,5.616,0,0,1,3.623,1A3.59,3.59,0,0,1,97.33-5.592a3.006,3.006,0,0,1-.589,1.834,3.821,3.821,0,0,1-1.606,1.235,3.432,3.432,0,0,1,1.9,1.275,3.661,3.661,0,0,1,.7,2.241,3.958,3.958,0,0,1-1.291,3.13,5.338,5.338,0,0,1-3.649,1.138Zm1.951-6.921V3.666h3.222a3.1,3.1,0,0,0,2.15-.706,2.481,2.481,0,0,0,.788-1.946q0-2.673-2.907-2.673Zm0-1.565h2.947A3.089,3.089,0,0,0,94.6-3.866a2.151,2.151,0,0,0,.767-1.742,2.115,2.115,0,0,0-.711-1.777,3.494,3.494,0,0,0-2.165-.555H89.606Zm14.31,5.732,2.561-8.242h2.012L104.068,6.959Q103.042,9.7,100.806,9.7l-.356-.03-.7-.132V8.016l.508.041a2.5,2.5,0,0,0,1.489-.386,2.8,2.8,0,0,0,.879-1.413l.417-1.118L99.119-5.735h2.053ZM128.2,5.262h-3.267L118.579-5.17V5.262h-3.267V-10.593h3.267l6.37,10.454V-10.593H128.2Zm8.069.218a5.784,5.784,0,0,1-4.22-1.59,5.651,5.651,0,0,1-1.628-4.236v-.3a7.118,7.118,0,0,1,.686-3.174,5.035,5.035,0,0,1,1.944-2.156,5.455,5.455,0,0,1,2.869-.757,4.89,4.89,0,0,1,3.806,1.524A6.2,6.2,0,0,1,141.119-.89V.394h-7.5a2.923,2.923,0,0,0,.92,1.851,2.782,2.782,0,0,0,1.944.7,3.4,3.4,0,0,0,2.842-1.318l1.546,1.731a4.724,4.724,0,0,1-1.916,1.563A6.288,6.288,0,0,1,136.274,5.48ZM135.914-4.2a1.966,1.966,0,0,0-1.519.634,3.285,3.285,0,0,0-.746,1.816h4.377V-2a2.343,2.343,0,0,0-.566-1.624A2.029,2.029,0,0,0,135.914-4.2ZM153.152.982l1.546-7.5h3.038L154.731,5.262H152.1l-2.232-7.416-2.232,7.416h-2.624L142-6.52h3.038L146.575.972l2.156-7.492h2.276Zm20.123.12a1.676,1.676,0,0,0-.653-1.421,8.57,8.57,0,0,0-2.352-1.045,16.673,16.673,0,0,1-2.69-1.083q-2.7-1.459-2.7-3.931a3.829,3.829,0,0,1,.724-2.292,4.723,4.723,0,0,1,2.08-1.573,7.828,7.828,0,0,1,3.044-.566,7.125,7.125,0,0,1,3.027.615,4.82,4.82,0,0,1,2.064,1.737,4.545,4.545,0,0,1,.735,2.548h-3.267A2.138,2.138,0,0,0,172.6-7.6a2.82,2.82,0,0,0-1.927-.6,3.013,3.013,0,0,0-1.862.506,1.6,1.6,0,0,0-.664,1.334,1.53,1.53,0,0,0,.779,1.3,8.8,8.8,0,0,0,2.292.98,9.9,9.9,0,0,1,4.062,2.08,4.142,4.142,0,0,1,1.274,3.093A3.816,3.816,0,0,1,175,4.309,6.817,6.817,0,0,1,170.8,5.48a8.1,8.1,0,0,1-3.332-.67,5.273,5.273,0,0,1-2.292-1.835,4.7,4.7,0,0,1-.789-2.7h3.278q0,2.624,3.136,2.624a3.051,3.051,0,0,0,1.818-.474A1.541,1.541,0,0,0,173.275,1.1Zm9.049-10.519v2.9h2.014l-2.014,2.309v5.88a1.4,1.4,0,0,0,.25.936,1.258,1.258,0,0,0,.958.283,5.019,5.019,0,0,0,.926-.076V5.2a6.479,6.479,0,0,1-1.906.283q-3.31,0-3.376-3.343V-4.212h-1.72V-6.52h1.72v-2.9Zm10.388,5.848a8.55,8.55,0,0,0-1.132-.087,2.305,2.305,0,0,0-2.341,1.209v7.71h-3.147V-6.52h2.973l.087,1.4a2.916,2.916,0,0,1,2.624-1.622,3.3,3.3,0,0,1,.98.142Zm6.565,9.049a5.784,5.784,0,0,1-4.22-1.59A5.651,5.651,0,0,1,193.43-.346v-.3a7.117,7.117,0,0,1,.686-3.174,5.035,5.035,0,0,1,1.944-2.156,5.456,5.456,0,0,1,2.869-.757,4.89,4.89,0,0,1,3.806,1.524A6.2,6.2,0,0,1,204.123-.89V.394h-7.5a2.923,2.923,0,0,0,.92,1.851,2.781,2.781,0,0,0,1.944.7,3.4,3.4,0,0,0,2.842-1.318l1.546,1.731a4.724,4.724,0,0,1-1.916,1.563A6.288,6.288,0,0,1,199.277,5.48ZM198.918-4.2a1.966,1.966,0,0,0-1.519.634,3.285,3.285,0,0,0-.746,1.816h4.377V-2a2.343,2.343,0,0,0-.566-1.624A2.029,2.029,0,0,0,198.918-4.2ZM222.1-9.417v2.9h2.015v2.309H222.1v5.88a1.4,1.4,0,0,0,.25.936,1.258,1.258,0,0,0,.958.283,5.018,5.018,0,0,0,.926-.076V5.2a6.478,6.478,0,0,1-1.906.283q-3.31,0-3.376-3.343V-4.212h-1.72V-6.52h1.72v-2.9Z" transform="translate(-16187.843 -850.703)"/>
    <path id="Path_23245" data-name="Path 23245" d="M200.277,5.48a5.784,5.784,0,0,1-4.22-1.59A5.651,5.651,0,0,1,194.43-.346v-.3a7.117,7.117,0,0,1,.686-3.174,5.035,5.035,0,0,1,1.944-2.156,5.456,5.456,0,0,1,2.869-.757,4.89,4.89,0,0,1,3.806,1.524A6.2,6.2,0,0,1,205.123-.89V.394h-7.5a2.923,2.923,0,0,0,.92,1.851,2.781,2.781,0,0,0,1.944.7,3.4,3.4,0,0,0,2.842-1.318l1.546,1.731a4.724,4.724,0,0,1-1.916,1.563A6.288,6.288,0,0,1,200.277,5.48ZM199.918-4.2a1.966,1.966,0,0,0-1.519.634,3.285,3.285,0,0,0-.746,1.816h4.377V-2a2.343,2.343,0,0,0-.566-1.624A2.029,2.029,0,0,0,199.918-4.2Z" transform="translate(-16176.843 -850.703)"/>
  </g>
</svg>
